<svg xmlns="http://www.w3.org/2000/svg" viewBox="0 0 400 400" width="400" height="400"><defs><linearGradient id="g" x1="0" y1="0" x2="1" y2="1"><stop offset="0" stop-color="#2B1B3A"/><stop offset="1" stop-color="#FF3D71" stop-opacity=".55"/></linearGradient><filter id="b"><feGaussianBlur stdDeviation="2"/></filter></defs><rect width="400" height="400" fill="url(#g)"/><g filter="url(#b)" transform="rotate(0 200 200)"><rect x="97" y="301" width="176" height="176" rx="35" fill="#FF8A00" opacity="0.69" transform="rotate(89 185 389)"/><rect x="312" y="256" width="78" height="78" rx="16" fill="#FF3D71" opacity="0.74" transform="rotate(82 351 295)"/><rect x="206" y="15" width="196" height="196" rx="39" fill="#FFD166" opacity="0.83" transform="rotate(64 304 113)"/><rect x="267.5" y="203.5" width="125" height="125" rx="25" fill="#FF8A00" opacity="0.76" transform="rotate(22 330 266)"/><rect x="316" y="-41" width="90" height="90" rx="18" fill="#FF3D71" opacity="0.55" transform="rotate(58 361 4)"/><rect x="168" y="217" width="162" height="162" rx="32" fill="#FFD166" opacity="0.58" transform="rotate(18 249 298)"/><rect x="135" y="94" width="96" height="96" rx="19" fill="#FF8A00" opacity="0.80" transform="rotate(61 183 142)"/></g><circle cx="200" cy="200" r="121" fill="none" stroke="#fff" stroke-opacity=".35" stroke-width="8"/></svg>