<svg xmlns="http://www.w3.org/2000/svg" viewBox="0 0 400 400" width="400" height="400"><defs><linearGradient id="g" x1="0" y1="0" x2="1" y2="1"><stop offset="0" stop-color="#073B4C"/><stop offset="1" stop-color="#06D6A0" stop-opacity=".55"/></linearGradient><filter id="b"><feGaussianBlur stdDeviation="10"/></filter></defs><rect width="400" height="400" fill="url(#g)"/><g filter="url(#b)" transform="rotate(180 200 200)"><rect x="255.5" y="176.5" width="153" height="153" rx="31" fill="#06D6A0" opacity="0.78" transform="rotate(17 332 253)"/><rect x="216.5" y="354.5" width="87" height="87" rx="17" fill="#118AB2" opacity="0.60" transform="rotate(43 260 398)"/><rect x="138.5" y="214.5" width="55" height="55" rx="11" fill="#FFD166" opacity="0.90" transform="rotate(35 166 242)"/><rect x="131" y="207" width="48" height="48" rx="10" fill="#06D6A0" opacity="0.58" transform="rotate(50 155 231)"/><rect x="167" y="325" width="92" height="92" rx="18" fill="#118AB2" opacity="0.61" transform="rotate(38 213 371)"/><rect x="315" y="224" width="126" height="126" rx="25" fill="#FFD166" opacity="0.86" transform="rotate(24 378 287)"/><rect x="87.5" y="35.5" width="151" height="151" rx="30" fill="#06D6A0" opacity="0.84" transform="rotate(82 163 111)"/></g><circle cx="200" cy="200" r="110" fill="none" stroke="#fff" stroke-opacity=".35" stroke-width="8"/></svg>