<svg xmlns="http://www.w3.org/2000/svg" viewBox="0 0 400 400" width="400" height="400"><defs><linearGradient id="g" x1="0" y1="0" x2="1" y2="1"><stop offset="0" stop-color="#0D1B2A"/><stop offset="1" stop-color="#00C2FF" stop-opacity=".55"/></linearGradient><filter id="b"><feGaussianBlur stdDeviation="10"/></filter></defs><rect width="400" height="400" fill="url(#g)"/><g filter="url(#b)" transform="rotate(180 200 200)"><ellipse cx="201" cy="330" rx="97" ry="32.333333333333336" fill="#00C2FF" opacity="0.49" transform="rotate(45 201 330)"/><ellipse cx="117" cy="398" rx="150" ry="50" fill="#00FFA3" opacity="0.86" transform="rotate(11 117 398)"/><ellipse cx="217" cy="256" rx="82" ry="27.333333333333332" fill="#7B61FF" opacity="0.58" transform="rotate(143 217 256)"/><ellipse cx="254" cy="115" rx="181" ry="60.333333333333336" fill="#00C2FF" opacity="0.82" transform="rotate(127 254 115)"/><ellipse cx="91" cy="58" rx="91" ry="30.333333333333332" fill="#00FFA3" opacity="0.46" transform="rotate(138 91 58)"/><ellipse cx="20" cy="384" rx="85" ry="28.333333333333332" fill="#7B61FF" opacity="0.63" transform="rotate(164 20 384)"/><ellipse cx="184" cy="52" rx="167" ry="55.666666666666664" fill="#00C2FF" opacity="0.67" transform="rotate(98 184 52)"/></g><circle cx="200" cy="200" r="96" fill="none" stroke="#fff" stroke-opacity=".35" stroke-width="4"/></svg>