<svg xmlns="http://www.w3.org/2000/svg" viewBox="0 0 400 400" width="400" height="400"><defs><linearGradient id="g" x1="0" y1="0" x2="1" y2="1"><stop offset="0" stop-color="#240046"/><stop offset="1" stop-color="#9D4EDD" stop-opacity=".55"/></linearGradient><filter id="b"><feGaussianBlur stdDeviation="2"/></filter></defs><rect width="400" height="400" fill="url(#g)"/><g filter="url(#b)" transform="rotate(0 200 200)"><ellipse cx="158" cy="280" rx="183" ry="61" fill="#E0AAFF" opacity="0.80" transform="rotate(21 158 280)"/><ellipse cx="252" cy="177" rx="94" ry="31.333333333333332" fill="#9D4EDD" opacity="0.58" transform="rotate(41 252 177)"/><ellipse cx="47" cy="26" rx="93" ry="31" fill="#5A189A" opacity="0.43" transform="rotate(64 47 26)"/><ellipse cx="194" cy="382" rx="186" ry="62" fill="#E0AAFF" opacity="0.58" transform="rotate(147 194 382)"/><ellipse cx="178" cy="94" rx="92" ry="30.666666666666668" fill="#9D4EDD" opacity="0.42" transform="rotate(161 178 94)"/><ellipse cx="24" cy="36" rx="75" ry="25" fill="#5A189A" opacity="0.74" transform="rotate(98 24 36)"/><ellipse cx="343" cy="252" rx="122" ry="40.666666666666664" fill="#E0AAFF" opacity="0.72" transform="rotate(75 343 252)"/></g><circle cx="200" cy="200" r="109" fill="none" stroke="#fff" stroke-opacity=".35" stroke-width="4"/></svg>