<svg xmlns="http://www.w3.org/2000/svg" viewBox="0 0 400 400" width="400" height="400"><defs><linearGradient id="g" x1="0" y1="0" x2="1" y2="1"><stop offset="0" stop-color="#0D1B2A"/><stop offset="1" stop-color="#00C2FF" stop-opacity=".55"/></linearGradient><filter id="b"><feGaussianBlur stdDeviation="10"/></filter></defs><rect width="400" height="400" fill="url(#g)"/><g filter="url(#b)" transform="rotate(0 200 200)"><ellipse cx="299" cy="79" rx="68" ry="22.666666666666668" fill="#00C2FF" opacity="0.61" transform="rotate(8 299 79)"/><ellipse cx="111" cy="325" rx="198" ry="66" fill="#00FFA3" opacity="0.81" transform="rotate(56 111 325)"/><ellipse cx="246" cy="146" rx="84" ry="28" fill="#7B61FF" opacity="0.49" transform="rotate(76 246 146)"/><ellipse cx="217" cy="245" rx="173" ry="57.666666666666664" fill="#00C2FF" opacity="0.56" transform="rotate(35 217 245)"/><ellipse cx="85" cy="380" rx="185" ry="61.666666666666664" fill="#00FFA3" opacity="0.48" transform="rotate(135 85 380)"/><ellipse cx="41" cy="322" rx="51" ry="17" fill="#7B61FF" opacity="0.89" transform="rotate(108 41 322)"/><ellipse cx="167" cy="159" rx="171" ry="57" fill="#00C2FF" opacity="0.50" transform="rotate(14 167 159)"/></g><circle cx="200" cy="200" r="96" fill="none" stroke="#fff" stroke-opacity=".35" stroke-width="6"/></svg>