<svg xmlns="http://www.w3.org/2000/svg" viewBox="0 0 400 400" width="400" height="400"><defs><linearGradient id="g" x1="0" y1="0" x2="1" y2="1"><stop offset="0" stop-color="#073B4C"/><stop offset="1" stop-color="#06D6A0" stop-opacity=".55"/></linearGradient><filter id="b"><feGaussianBlur stdDeviation="10"/></filter></defs><rect width="400" height="400" fill="url(#g)"/><g filter="url(#b)" transform="rotate(0 200 200)"><rect x="118.5" y="241.5" width="143" height="143" rx="29" fill="#06D6A0" opacity="0.73" transform="rotate(53 190 313)"/><rect x="304.5" y="175.5" width="187" height="187" rx="37" fill="#118AB2" opacity="0.58" transform="rotate(31 398 269)"/><rect x="191" y="91" width="166" height="166" rx="33" fill="#FFD166" opacity="0.86" transform="rotate(85 274 174)"/><rect x="189" y="81" width="112" height="112" rx="22" fill="#06D6A0" opacity="0.63" transform="rotate(40 245 137)"/><rect x="107" y="-68" width="190" height="190" rx="38" fill="#118AB2" opacity="0.73" transform="rotate(72 202 27)"/><rect x="369.5" y="307.5" width="45" height="45" rx="9" fill="#FFD166" opacity="0.59" transform="rotate(58 392 330)"/><rect x="93" y="287" width="104" height="104" rx="21" fill="#06D6A0" opacity="0.85" transform="rotate(39 145 339)"/></g><circle cx="200" cy="200" r="109" fill="none" stroke="#fff" stroke-opacity=".35" stroke-width="4"/></svg>