<svg xmlns="http://www.w3.org/2000/svg" viewBox="0 0 400 400" width="400" height="400"><defs><linearGradient id="g" x1="0" y1="0" x2="1" y2="1"><stop offset="0" stop-color="#073B4C"/><stop offset="1" stop-color="#06D6A0" stop-opacity=".55"/></linearGradient><filter id="b"><feGaussianBlur stdDeviation="10"/></filter></defs><rect width="400" height="400" fill="url(#g)"/><g filter="url(#b)" transform="rotate(180 200 200)"><rect x="-8" y="61" width="194" height="194" rx="39" fill="#06D6A0" opacity="0.53" transform="rotate(57 89 158)"/><rect x="-4.5" y="183.5" width="173" height="173" rx="35" fill="#118AB2" opacity="0.76" transform="rotate(43 82 270)"/><rect x="150" y="70" width="88" height="88" rx="18" fill="#FFD166" opacity="0.85" transform="rotate(7 194 114)"/><rect x="182" y="34" width="148" height="148" rx="30" fill="#06D6A0" opacity="0.61" transform="rotate(53 256 108)"/><rect x="321" y="16" width="134" height="134" rx="27" fill="#118AB2" opacity="0.86" transform="rotate(61 388 83)"/><rect x="28" y="218" width="56" height="56" rx="11" fill="#FFD166" opacity="0.69" transform="rotate(43 56 246)"/><rect x="143.5" y="349.5" width="81" height="81" rx="16" fill="#06D6A0" opacity="0.51" transform="rotate(9 184 390)"/></g><circle cx="200" cy="200" r="125" fill="none" stroke="#fff" stroke-opacity=".35" stroke-width="3"/></svg>